<svg version="1.1" xmlns="http://www.w3.org/2000/svg" xmlns:xlink="http://www.w3.org/1999/xlink" width="385.000000pt" height="512.000000pt" viewBox="0,0,192.5,256"><g fill="#ffffff" fill-rule="nonzero" stroke="none" stroke-width="1" stroke-linecap="butt" stroke-linejoin="miter" stroke-miterlimit="10" stroke-dasharray="" stroke-dashoffset="0" font-family="none" font-weight="none" font-size="none" text-anchor="none" style="mix-blend-mode: normal"><g transform="translate(-0.75625,0.03147) scale(0.5,0.5)"><g transform="translate(0,512) scale(0.1,-0.1)"><path d="M403,4885c-178,-48 -304,-187 -332,-365c-15,-90 -15,-3830 0,-3920c28,-180 155,-318 336,-365c49,-13 256,-15 1524,-15c955,0 1485,4 1520,10c184,35 330,185 359,370c14,88 14,2952 0,3000c-8,27 -147,172 -628,653c-339,340 -629,625 -644,633c-40,21 -2056,20 -2135,-1zM2382,4217l3,-462l32,-65c35,-71 96,-139 158,-175c87,-51 126,-55 587,-55h428v-1425c0,-1573 5,-1460 -65,-1528c-73,-71 22,-67 -1585,-67c-1607,0 -1512,-4 -1585,67c-70,68 -65,-99 -65,2053c0,2152 -5,1985 66,2054c69,67 27,65 1076,65l947,1zM3430,3687c0,-4 -159,-7 -352,-5c-394,3 -390,3 -445,75l-28,36l-3,366l-3,366l416,-415c228,-228 415,-419 415,-423z"></path><path d="M1381,4074c-126,-34 -228,-119 -289,-243c-36,-73 -37,-77 -37,-191c0,-114 1,-117 38,-192c139,-282 507,-343 720,-119c34,36 71,88 90,128c30,64 32,74 32,183c0,109 -2,119 -32,183c-38,80 -122,173 -191,210c-101,55 -224,70 -331,41zM1598,3841c72,-37 122,-115 122,-192c0,-161 -137,-267 -288,-224c-159,47 -217,250 -104,368c71,75 179,94 270,48z"></path><path d="M1210,3124c-169,-44 -334,-179 -408,-335c-47,-99 -58,-144 -66,-259c-7,-103 6,-145 53,-177c42,-28 66,-29 109,-3c45,27 62,74 62,164c0,164 86,297 240,370l65,31h230h230l65,-31c94,-45 153,-102 196,-189c33,-67 38,-86 44,-180c7,-115 21,-147 75,-174c25,-12 35,-12 69,0c66,24 81,55 79,165c-4,184 -60,321 -182,444c-87,88 -172,139 -281,169c-66,19 -102,21 -300,20c-162,0 -240,-4 -280,-15z"></path><path d="M717,1720c-30,-24 -50,-78 -42,-113c4,-14 20,-38 36,-53l30,-29l699,-3c777,-3 755,-4 786,61c23,48 12,98 -27,131l-31,26h-712c-700,0 -714,0 -739,-20z"></path><path d="M724,1141c-42,-26 -60,-78 -44,-127c7,-21 24,-43 44,-55c30,-18 64,-19 1118,-19h1086l31,26c57,47 50,137 -13,175c-30,18 -72,19 -1111,19c-1047,0 -1081,-1 -1111,-19z"></path></g></g></g></svg>