<svg version="1.1" xmlns="http://www.w3.org/2000/svg" xmlns:xlink="http://www.w3.org/1999/xlink" width="512.000000pt" height="512.000000pt" viewBox="0,0,256,256"><g fill="#ffffff" fill-rule="nonzero" stroke="none" stroke-width="1" stroke-linecap="butt" stroke-linejoin="miter" stroke-miterlimit="10" stroke-dasharray="" stroke-dashoffset="0" font-family="none" font-weight="none" font-size="none" text-anchor="none" style="mix-blend-mode: normal"><g transform="translate(0.10043,0.02579) scale(0.5,0.5)"><g transform="translate(0,512) scale(0.1,-0.1)"><path d="M2315,5109c-800,-83 -1501,-518 -1927,-1196c-604,-960 -491,-2229 272,-3065c423,-463 951,-740 1585,-830c118,-17 511,-16 635,0c579,80 1097,337 1491,739c130,132 157,163 243,277c256,341 423,757 488,1211c17,118 17,512 0,630c-43,303 -122,561 -247,814c-134,268 -270,459 -483,674c-395,400 -889,649 -1457,733c-123,18 -478,26 -600,13zM1655,4004c71,-25 156,-111 180,-184c58,-170 -20,-349 -179,-409c-187,-70 -377,-12 -462,141c-27,49 -29,61 -29,153c0,84 4,107 22,141c47,88 116,144 212,171c59,17 190,10 256,-13zM3555,3145c101,-28 213,-92 285,-165c77,-78 123,-153 162,-262c55,-157 58,-195 58,-859v-609h-310h-310v548c0,432 -3,561 -14,613c-26,122 -75,192 -164,236c-79,39 -191,40 -272,2c-72,-34 -132,-96 -172,-177l-33,-67l-3,-577l-3,-578h-310h-309v940v940h310h310v-132l1,-133l25,30c14,17 43,51 64,77c73,86 217,165 345,188c71,13 269,4 340,-15zM1818,2188l2,-938h-315h-315v933c0,514 3,937 7,940c4,4 144,6 312,5l306,-3z"></path></g></g></g></svg>